<?xml version="1.0" standalone="no"?>
<!DOCTYPE svg PUBLIC "-//W3C//DTD SVG 20010904//EN"
 "http://www.w3.org/TR/2001/REC-SVG-20010904/DTD/svg10.dtd">
<svg version="1.0" xmlns="http://www.w3.org/2000/svg"
 width="1536.000000pt" height="1536.000000pt" viewBox="0 0 1536.000000 1536.000000"
 preserveAspectRatio="xMidYMid meet">
<metadata>
Created by potrace 1.10, written by Peter Selinger 2001-2011
</metadata>
<g transform="translate(0.000000,1536.000000) scale(0.100000,-0.100000)"
fill="#000000" stroke="none">
<path d="M8717 15346 c-4 -10 -32 -16 -94 -21 -186 -13 -522 -75 -728 -132
-169 -48 -546 -181 -621 -221 -11 -5 -77 -38 -149 -73 -379 -185 -702 -405
-1025 -695 -369 -334 -651 -687 -908 -1139 -49 -87 -222 -448 -222 -464 0 -5
-12 -35 -26 -67 -27 -62 -108 -303 -139 -414 -9 -36 -23 -85 -30 -110 -90
-326 -141 -769 -132 -1160 12 -498 68 -836 216 -1295 53 -163 88 -260 117
-321 13 -28 24 -54 24 -57 0 -10 154 -324 195 -397 147 -262 319 -506 543
-769 28 -34 52 -66 52 -71 0 -7 -727 -739 -788 -794 -21 -19 -22 -18 -60 16
-53 48 -153 103 -232 127 -96 30 -261 29 -357 -2 -160 -53 -51 51 -2204 -2104
-2035 -2037 -2030 -2031 -2081 -2153 -61 -144 -70 -195 -65 -370 4 -158 10
-190 52 -295 80 -200 251 -371 450 -450 222 -88 418 -87 635 2 47 20 110 51
140 70 37 23 722 701 2048 2026 2150 2148 2046 2040 2099 2200 31 96 32 261 2
357 -24 79 -79 179 -127 232 -34 38 -35 39 -16 60 64 71 788 788 796 788 6 0
40 -26 76 -57 218 -192 501 -392 764 -539 86 -47 385 -194 397 -194 5 0 31
-11 58 -24 128 -65 549 -194 798 -247 367 -77 851 -107 1225 -75 260 22 489
55 633 92 264 66 525 147 641 198 32 14 62 26 67 26 19 0 372 171 464 224 33
20 67 39 75 42 37 17 234 144 330 212 620 442 1101 1007 1429 1677 34 72 67
138 72 148 26 50 112 278 163 432 80 244 123 431 170 740 97 639 36 1355 -169
1980 -97 295 -178 479 -345 790 -54 101 -166 281 -216 349 -17 22 -52 73 -79
111 -27 39 -54 75 -60 80 -6 6 -27 30 -45 55 -117 155 -377 430 -545 576 -44
38 -82 72 -85 75 -3 3 -36 29 -75 58 -38 30 -72 57 -75 61 -11 16 -276 197
-393 269 -119 73 -334 185 -482 253 -112 51 -373 153 -460 178 -235 70 -279
81 -445 115 -180 36 -343 61 -460 70 -88 7 -112 13 -105 26 4 5 -129 9 -338 9
-287 0 -346 -2 -350 -14z m538 -396 c341 -25 451 -40 695 -96 706 -161 1308
-478 1849 -974 314 -288 621 -683 808 -1038 219 -416 320 -700 418 -1182 91
-447 90 -1002 -1 -1475 -53 -271 -138 -566 -211 -735 -6 -14 -28 -65 -48 -115
-66 -158 -191 -396 -298 -565 -387 -610 -940 -1112 -1582 -1437 -230 -117
-411 -189 -695 -277 -423 -131 -1002 -186 -1480 -142 -419 39 -730 112 -1120
263 -205 80 -539 247 -637 319 -17 13 -34 24 -37 24 -8 0 -196 129 -281 194
-282 213 -567 499 -781 781 -69 91 -194 272 -194 281 0 3 -11 20 -24 37 -41
56 -166 289 -245 457 -48 104 -163 407 -181 480 -5 19 -16 60 -26 90 -20 68
-39 146 -65 275 -106 525 -107 1104 -2 1610 14 66 29 140 34 165 5 25 13 56
18 70 4 14 16 52 26 85 127 427 297 788 544 1150 258 381 606 735 986 1006
235 168 521 329 754 425 47 20 100 41 116 48 71 31 92 39 120 46 17 5 55 18
85 29 59 23 262 79 375 104 230 50 387 74 575 87 85 6 171 12 190 14 78 7 182
5 315 -4z m-4630 -8054 c36 -17 98 -72 222 -197 181 -183 213 -228 213 -304 0
-77 -31 -120 -218 -307 -97 -98 -181 -178 -187 -178 -13 0 -605 592 -605 605
0 6 80 90 178 187 187 187 230 217 307 218 22 0 63 -11 90 -24z m-558 -968
c161 -161 293 -300 293 -308 0 -9 -736 -751 -1635 -1650 -1162 -1162 -1649
-1643 -1685 -1664 -53 -29 -174 -66 -220 -66 -14 0 -53 7 -85 15 -176 44 -296
164 -340 340 -19 75 -19 94 1 174 35 140 -52 49 1707 1809 903 903 1649 1642
1657 1642 8 0 147 -132 307 -292z"/>
<path d="M8745 14488 c-283 -24 -672 -111 -900 -200 -27 -11 -68 -27 -90 -35
-58 -22 -72 -28 -157 -67 -98 -45 -218 -103 -238 -115 -8 -6 -55 -33 -105 -62
-87 -51 -295 -186 -305 -198 -3 -4 -25 -22 -49 -41 -24 -18 -56 -52 -72 -73
-24 -33 -29 -50 -29 -100 0 -113 80 -197 189 -197 62 0 86 12 216 105 372 266
791 449 1235 539 417 84 840 84 1250 0 189 -39 406 -103 560 -165 108 -44 406
-192 468 -234 30 -19 55 -35 57 -35 7 0 140 -93 224 -157 189 -142 434 -382
564 -553 49 -65 187 -259 187 -264 0 -2 16 -28 35 -58 42 -62 190 -360 234
-468 54 -134 130 -384 151 -495 4 -22 12 -62 18 -90 23 -105 42 -257 53 -426
17 -249 -4 -540 -57 -799 -58 -282 -167 -593 -291 -828 -86 -166 -134 -242
-307 -492 -41 -59 -45 -71 -46 -124 0 -79 31 -132 101 -175 45 -27 126 -28
178 -2 34 18 50 33 118 114 34 40 154 223 212 322 29 50 56 97 61 105 17 27
101 204 127 265 14 33 28 65 33 70 4 6 10 19 13 30 3 11 15 45 27 75 79 204
154 493 194 750 46 298 45 774 -3 1055 -27 158 -68 345 -102 460 -11 39 -24
84 -29 100 -4 17 -18 55 -30 85 -12 30 -24 64 -27 75 -3 11 -11 34 -18 50 -31
69 -45 103 -45 109 0 10 -158 327 -180 361 -11 17 -24 39 -30 50 -17 31 -31
54 -94 150 -207 317 -517 645 -831 882 -77 58 -294 203 -325 216 -8 4 -28 16
-45 26 -106 67 -394 202 -548 257 -289 104 -613 174 -938 204 -134 12 -467 11
-614 -2z"/>
<path d="M6300 13168 c-47 -30 -45 -28 -137 -154 -149 -206 -329 -526 -408
-729 -41 -105 -85 -225 -99 -275 -8 -25 -21 -70 -30 -100 -58 -190 -106 -464
-125 -709 -27 -335 -1 -726 70 -1041 11 -52 25 -113 29 -136 5 -22 13 -51 18
-65 6 -13 18 -51 27 -84 10 -33 23 -76 31 -95 7 -19 25 -69 40 -110 274 -760
855 -1444 1569 -1849 121 -69 325 -169 420 -206 106 -42 225 -85 280 -101 28
-8 64 -19 80 -24 384 -114 857 -163 1272 -130 266 21 462 56 728 131 368 103
761 294 1084 528 130 94 129 93 159 142 40 65 26 177 -30 232 -37 37 -84 57
-136 57 -63 0 -86 -11 -217 -105 -189 -135 -421 -266 -600 -340 -49 -20 -102
-43 -117 -51 -14 -8 -35 -14 -45 -14 -10 0 -23 -4 -28 -9 -11 -9 -176 -62
-270 -85 -542 -135 -1073 -134 -1620 5 -474 121 -951 382 -1335 732 -242 221
-485 529 -630 803 -24 43 -48 88 -55 100 -7 11 -32 64 -55 119 -23 54 -45 105
-50 114 -4 9 -16 36 -25 61 -10 25 -23 61 -31 80 -25 64 -85 283 -109 400
-103 508 -94 960 32 1465 25 103 94 319 112 352 5 10 26 59 46 108 77 186 200
404 342 602 94 133 103 152 103 214 0 50 -21 100 -58 138 -53 54 -169 69 -232
29z"/>
<path d="M7522 12169 c-19 -6 -53 -30 -77 -55 -37 -37 -45 -53 -50 -97 -13
-102 0 -123 172 -299 l156 -159 -29 -30 c-16 -17 -86 -89 -156 -159 -140 -142
-155 -169 -143 -265 15 -124 164 -204 273 -147 18 10 99 84 181 165 81 81 152
147 157 147 5 0 72 -63 149 -140 77 -78 159 -152 182 -165 96 -57 220 -16 269
88 27 59 29 82 12 141 -9 32 -44 74 -165 197 -84 85 -153 161 -153 167 0 7 68
81 150 164 130 132 153 159 167 204 19 61 13 105 -23 160 -41 64 -87 89 -158
89 -37 -1 -73 -7 -93 -18 -17 -9 -97 -82 -178 -162 -81 -80 -152 -145 -158
-145 -5 0 -80 69 -166 154 -182 179 -214 195 -319 165z"/>
<path d="M9635 12170 c-68 -21 -135 -112 -135 -183 0 -69 26 -107 180 -263 83
-83 150 -157 150 -165 0 -8 -68 -82 -150 -164 -109 -109 -155 -162 -166 -192
-48 -124 50 -262 185 -263 74 0 100 18 269 184 78 78 147 142 152 144 5 2 77
-63 160 -145 83 -81 165 -156 182 -165 110 -60 262 26 275 154 9 92 -4 114
-174 289 l-155 159 155 158 c130 133 157 165 167 203 42 156 -87 290 -240 249
-38 -10 -69 -36 -201 -166 -86 -85 -161 -154 -167 -154 -6 0 -70 60 -144 133
-171 171 -192 187 -260 192 -29 3 -67 0 -83 -5z"/>
<path d="M8875 10055 c-172 -21 -332 -60 -460 -113 -236 -97 -505 -284 -577
-400 -30 -50 -30 -145 0 -194 33 -53 82 -86 138 -93 74 -10 123 8 191 68 63
56 163 134 201 155 138 78 217 111 342 143 90 24 272 49 355 49 83 0 265 -25
358 -49 116 -30 208 -69 339 -143 41 -24 142 -101 201 -155 67 -61 115 -78
194 -68 44 5 60 13 97 50 74 72 85 172 27 252 -53 73 -194 187 -337 271 -219
129 -429 197 -704 227 -158 17 -216 17 -365 0z"/>
</g>
</svg>
